<?xml version="1.0" standalone="no"?>
<!DOCTYPE svg PUBLIC "-//W3C//DTD SVG 20010904//EN"
 "http://www.w3.org/TR/2001/REC-SVG-20010904/DTD/svg10.dtd">
<svg version="1.0" xmlns="http://www.w3.org/2000/svg"
 width="942.000000pt" height="942.000000pt" viewBox="0 0 942.000000 942.000000"
 preserveAspectRatio="xMidYMid meet">
<metadata>
Created by potrace 1.14, written by Peter Selinger 2001-2017
</metadata>
<g transform="translate(0.000000,942.000000) scale(0.100000,-0.100000)"
fill="#000000" stroke="none">
<path d="M7313 8308 c-86 -92 -114 -187 -109 -362 3 -72 7 -142 9 -156 2 -14
7 -47 11 -75 4 -27 8 -57 10 -65 1 -8 6 -37 10 -65 22 -143 70 -285 171 -500
25 -55 65 -143 87 -195 34 -80 95 -208 103 -218 1 -1 22 9 46 22 103 57 283
86 392 63 30 -6 32 0 17 53 -6 19 -12 46 -15 60 -3 14 -7 36 -10 50 -8 39 -13
69 -24 150 -19 138 -41 275 -47 292 -3 10 -7 30 -10 45 -6 36 -64 223 -75 243
-5 8 -23 51 -40 95 -40 105 -139 294 -195 371 -148 208 -256 271 -331 192z"/>
<path d="M6037 8059 c-25 -15 -57 -89 -66 -151 -10 -75 11 -185 60 -320 85
-232 272 -579 399 -742 96 -122 201 -231 468 -485 71 -69 137 -137 146 -152
16 -27 16 -27 -31 -62 -56 -41 -122 -109 -182 -187 -73 -94 -175 -325 -198
-449 -2 -13 -6 -28 -9 -32 -2 -4 -7 -34 -10 -66 -4 -32 -10 -62 -14 -66 -15
-16 -172 50 -257 107 -128 87 -325 323 -533 636 -220 332 -330 451 -620 670
-163 123 -268 192 -381 250 -91 47 -263 110 -334 124 -177 32 -253 44 -296 45
-11 1 -31 49 -74 176 -72 220 -101 265 -200 315 -61 30 -80 35 -140 34 -108
-1 -181 -49 -236 -155 -25 -50 -29 -67 -34 -146 -7 -114 26 -220 102 -326 19
-27 33 -50 31 -52 -2 -1 -19 -11 -38 -22 -95 -51 -205 -132 -283 -208 -80 -76
-140 -164 -186 -270 -71 -163 -112 -245 -167 -336 -48 -80 -119 -192 -137
-214 -4 -5 -33 -46 -63 -90 -112 -160 -165 -198 -279 -199 -113 -1 -170 15
-384 111 -79 36 -161 68 -182 70 -77 11 -204 -47 -469 -212 -212 -132 -315
-180 -463 -215 -81 -19 -135 -23 -464 -35 -84 -3 -158 -7 -165 -9 -7 -3 -47
-7 -87 -11 -158 -13 -246 -45 -258 -93 -8 -32 2 -153 14 -177 6 -11 18 -37 28
-58 51 -106 278 -212 430 -202 118 8 324 59 409 101 16 8 33 14 37 14 4 0 65
27 134 61 286 136 586 228 707 217 97 -10 353 -164 633 -382 336 -262 483
-328 670 -300 200 29 404 120 561 250 99 81 162 120 235 143 232 73 392 -27
696 -434 29 -38 56 -74 60 -80 5 -5 30 -38 56 -72 95 -125 360 -386 619 -612
15 -13 76 -62 135 -108 505 -392 966 -602 1712 -778 63 -15 134 -36 159 -46
35 -15 154 -104 218 -164 6 -5 30 -26 54 -45 24 -19 48 -39 54 -45 104 -96
436 -365 556 -451 110 -79 110 -79 345 -164 110 -39 259 -96 330 -125 151 -62
286 -103 359 -109 60 -5 110 17 151 66 63 74 68 131 21 235 -67 145 -127 204
-279 268 -111 48 -234 105 -272 128 -32 20 -109 71 -122 82 -6 5 -46 37 -87
70 -42 33 -138 125 -214 205 -75 80 -193 199 -262 265 -292 281 -270 256 -270
306 1 24 9 88 19 141 20 105 21 259 3 338 -21 90 -27 169 -27 345 1 201 15
288 64 390 54 114 120 168 346 283 39 20 93 50 120 67 52 33 84 44 200 71 76
18 122 39 247 113 147 87 195 143 234 270 12 40 18 78 28 180 7 66 -20 125
-85 188 -78 75 -150 164 -234 288 -308 453 -508 595 -840 597 -74 1 -116 -4
-165 -17 -3 -1 -18 -5 -35 -10 -16 -4 -77 -30 -134 -56 -57 -27 -105 -49 -106
-49 -2 0 -23 20 -48 45 -96 94 -164 209 -252 425 -48 119 -130 288 -168 350
-77 125 -252 318 -426 470 -41 36 -83 73 -95 84 -100 88 -236 170 -319 192
-61 16 -145 18 -170 3z m1948 -2038 c63 -28 119 -81 153 -146 23 -43 27 -62
27 -135 0 -73 -4 -92 -27 -136 -78 -148 -254 -210 -401 -142 -250 117 -238
466 20 567 64 25 161 22 228 -8z"/>
<path d="M7798 5965 c-3 -3 -4 -20 -2 -38 10 -116 11 -192 2 -212 -20 -44 26
-91 72 -72 34 14 47 16 103 18 26 1 48 6 48 11 1 4 1 17 1 28 0 11 0 24 -1 28
0 4 -30 6 -65 4 -35 -2 -67 1 -70 6 -6 9 -14 115 -15 195 -1 35 -3 37 -34 37
-19 0 -36 -2 -39 -5z"/>
<path d="M1590 5127 c-102 -32 -198 -76 -215 -99 -25 -37 10 -112 73 -152 62
-41 215 -60 325 -42 55 9 158 62 213 110 l47 42 -79 58 c-43 32 -97 67 -119
78 -60 31 -153 33 -245 5z"/>
<path d="M3855 4807 c-33 -18 -96 -57 -140 -86 -44 -29 -136 -85 -204 -124
l-124 -71 86 -82 c136 -130 226 -164 419 -158 111 3 229 26 318 61 74 29 200
107 200 124 0 20 -141 217 -184 257 -69 64 -156 103 -240 108 -66 4 -75 2
-131 -29z"/>
<path d="M8019 3598 c0 -7 -2 -20 -4 -28 -2 -8 -8 -40 -14 -70 -27 -140 -27
-140 52 -220 84 -85 157 -153 162 -149 2 2 -14 54 -35 116 -21 61 -41 126 -45
145 -10 47 -92 218 -104 218 -6 0 -11 -6 -12 -12z"/>
<path d="M7970 2135 c0 -8 245 -427 328 -560 108 -174 298 -387 380 -426 26
-12 70 -29 97 -39 58 -20 185 -26 213 -11 40 21 65 140 48 221 -3 14 -9 39
-12 55 -12 57 -44 104 -109 162 -36 32 -91 92 -121 134 l-55 75 -192 69 c-106
37 -220 78 -254 91 -72 26 -167 90 -259 176 -35 33 -64 57 -64 53z"/>
</g>
</svg>
